# Blender 3.6.4
# www.blender.org
mtllib doors_hobbit_door.mtl
o Cube.001
v -1.498792 -0.500000 -0.499631
v -1.498792 1.497584 -0.499631
v 0.498792 -0.500000 -0.499630
v 0.498792 1.497584 -0.499630
v -1.498792 -0.500000 -0.366458
v -1.498792 1.497584 -0.366458
v 0.498792 -0.500000 -0.366458
v 0.498792 1.497584 -0.366458
v -1.498792 0.964895 -0.499631
v -1.498792 1.098067 -0.499631
v -1.498792 1.231239 -0.499631
v -1.498792 1.364412 -0.499631
v 0.498792 1.364412 -0.499630
v 0.498792 1.231239 -0.499630
v 0.498792 1.098067 -0.499630
v 0.498792 0.964895 -0.499630
v 0.498792 1.364412 -0.366458
v 0.498792 1.231239 -0.366458
v 0.498792 1.098067 -0.366458
v 0.498792 0.964895 -0.366458
v -1.498792 1.364412 -0.366458
v -1.498792 1.231239 -0.366458
v -1.498792 1.098067 -0.366458
v -1.498792 0.964895 -0.366458
v 0.498792 0.032689 -0.499630
v 0.498792 -0.100483 -0.499630
v 0.498792 -0.233655 -0.499630
v 0.498792 -0.366828 -0.499630
v 0.498792 0.032689 -0.366458
v 0.498792 -0.100483 -0.366458
v 0.498792 -0.233655 -0.366458
v 0.498792 -0.366828 -0.366458
v -1.498792 0.032689 -0.366458
v -1.498792 -0.100483 -0.366458
v -1.498792 -0.233655 -0.366458
v -1.498792 -0.366828 -0.366458
v -1.498792 -0.366828 -0.499631
v -1.498792 -0.233655 -0.499631
v -1.498792 -0.100483 -0.499631
v -1.498792 0.032689 -0.499631
v -0.966103 -0.500000 -0.499631
v -1.099275 -0.500000 -0.499631
v -1.232448 -0.500000 -0.499631
v -1.365620 -0.500000 -0.499631
v -0.966103 1.497584 -0.366458
v -1.099275 1.497584 -0.366458
v -1.232448 1.497584 -0.366458
v -1.365620 1.497584 -0.366458
v -1.365620 1.497584 -0.499631
v -1.232448 1.497584 -0.499631
v -1.099275 1.497584 -0.499631
v -0.966103 1.497584 -0.499631
v -1.365620 -0.500000 -0.366458
v -1.232448 -0.500000 -0.366458
v -1.099275 -0.500000 -0.366458
v -0.966103 -0.500000 -0.366458
v -1.365620 0.964895 -0.499631
v -1.232448 0.964895 -0.499631
v -1.365620 1.098067 -0.499631
v -1.232448 1.098067 -0.499631
v -1.365620 1.231239 -0.499631
v -1.232448 1.231239 -0.499631
v -1.099275 1.231239 -0.499631
v -0.966103 1.231239 -0.499631
v -1.365620 1.364412 -0.499631
v -1.232448 1.364412 -0.499631
v -1.099275 1.364412 -0.499631
v -0.966103 1.364412 -0.499631
v -1.232448 0.964895 -0.366458
v -1.365620 0.964895 -0.366458
v -1.232448 1.098067 -0.366458
v -1.365620 1.098067 -0.366458
v -0.966103 1.231239 -0.366458
v -1.099275 1.231239 -0.366458
v -1.232448 1.231239 -0.366458
v -1.365620 1.231239 -0.366458
v -0.966103 1.364412 -0.366458
v -1.099275 1.364412 -0.366458
v -1.232448 1.364412 -0.366458
v -1.365620 1.364412 -0.366458
v -0.966103 -0.366828 -0.366458
v -1.099275 -0.366828 -0.366458
v -1.232448 -0.366828 -0.366458
v -1.365620 -0.366828 -0.366458
v -0.966103 -0.233655 -0.366458
v -1.099275 -0.233655 -0.366458
v -1.365620 -0.233655 -0.366458
v -1.232448 -0.233655 -0.366458
v -1.232448 -0.100483 -0.366458
v -1.365620 -0.100483 -0.366458
v -1.232448 0.032689 -0.366458
v -1.365620 0.032689 -0.366458
v -1.365620 -0.366828 -0.499631
v -1.232448 -0.366828 -0.499631
v -1.099275 -0.366828 -0.499631
v -0.966103 -0.366828 -0.499631
v -1.365620 -0.233655 -0.499631
v -1.099275 -0.233655 -0.499631
v -0.966103 -0.233655 -0.499631
v -1.365620 -0.100483 -0.499631
v -1.232448 -0.100483 -0.499631
v -1.232448 -0.233655 -0.499631
v -1.365620 0.032689 -0.499631
v -1.232448 0.032689 -0.499631
v -0.033897 1.497584 -0.499631
v 0.099275 1.497584 -0.499630
v 0.232447 1.497584 -0.499630
v 0.365620 1.497584 -0.499630
v -0.033897 -0.500000 -0.366458
v 0.099275 -0.500000 -0.366458
v 0.232447 -0.500000 -0.366458
v 0.365620 -0.500000 -0.366458
v 0.365620 -0.500000 -0.499630
v 0.232447 -0.500000 -0.499630
v 0.099275 -0.500000 -0.499630
v -0.033897 -0.500000 -0.499631
v 0.365620 1.497584 -0.366458
v 0.232447 1.497584 -0.366458
v 0.099275 1.497584 -0.366458
v -0.033897 1.497584 -0.366458
v 0.365620 0.964895 -0.366458
v 0.232447 0.964895 -0.366458
v 0.365620 1.098067 -0.366458
v 0.232447 1.098067 -0.366458
v 0.365620 1.231239 -0.366458
v 0.232447 1.231239 -0.366458
v 0.099275 1.231239 -0.366458
v -0.033897 1.231239 -0.366458
v 0.365620 1.364412 -0.366458
v 0.232447 1.364412 -0.366458
v 0.099275 1.364412 -0.366458
v -0.033897 1.364412 -0.366458
v 0.232447 0.964895 -0.499630
v 0.365620 0.964895 -0.499630
v 0.232447 1.098067 -0.499630
v 0.365620 1.098067 -0.499630
v -0.033897 1.231239 -0.499631
v 0.099275 1.231239 -0.499630
v 0.232447 1.231239 -0.499630
v 0.365620 1.231239 -0.499630
v -0.033897 1.364412 -0.499631
v 0.099275 1.364412 -0.499630
v 0.232447 1.364412 -0.499630
v 0.365620 1.364412 -0.499630
v -0.033897 -0.366828 -0.499631
v 0.099275 -0.366828 -0.499630
v 0.232447 -0.366828 -0.499630
v 0.365620 -0.366828 -0.499630
v -0.033897 -0.233655 -0.499631
v 0.099275 -0.233655 -0.499630
v 0.232447 -0.233655 -0.499630
v 0.365620 -0.233655 -0.499630
v 0.232447 -0.100483 -0.499630
v 0.365620 -0.100483 -0.499630
v 0.232447 0.032689 -0.499630
v 0.365620 0.032689 -0.499630
v 0.365620 -0.366828 -0.366458
v 0.232447 -0.366828 -0.366458
v 0.099275 -0.366828 -0.366458
v -0.033897 -0.366828 -0.366458
v 0.365620 -0.233655 -0.366458
v 0.232447 -0.233655 -0.366458
v 0.099275 -0.233655 -0.366458
v -0.033897 -0.233655 -0.366458
v 0.365620 -0.100483 -0.366458
v 0.232447 -0.100483 -0.366458
v 0.365620 0.032689 -0.366458
v 0.232447 0.032689 -0.366458
v -1.365620 0.964895 -0.499661
v -1.232447 0.964895 -0.499661
v -1.099275 0.964895 -0.499661
v -0.966103 0.964895 -0.499661
v -1.232447 1.098067 -0.499661
v -1.099275 1.098067 -0.499661
v -0.966103 1.098067 -0.499661
v -1.232447 1.231239 -0.499661
v -1.099275 1.231239 -0.499661
v -0.966103 1.231239 -0.499661
v -0.966103 1.364412 -0.499661
v -0.966103 0.964895 -0.366488
v -1.099275 0.964895 -0.366488
v -1.232447 0.964895 -0.366489
v -1.365620 0.964895 -0.366489
v -0.966103 1.098067 -0.366488
v -1.099275 1.098067 -0.366488
v -1.232447 1.098067 -0.366489
v -0.966103 1.231239 -0.366488
v -1.099275 1.231239 -0.366488
v -1.232447 1.231239 -0.366489
v -0.966103 1.364412 -0.366488
v -0.966103 -0.366828 -0.366488
v -0.966103 -0.233655 -0.366488
v -1.099275 -0.233655 -0.366488
v -0.966103 -0.100483 -0.366488
v -1.099275 -0.100483 -0.366488
v -1.232447 -0.100483 -0.366489
v -0.966103 0.032689 -0.366488
v -1.099275 0.032689 -0.366488
v -1.232447 0.032689 -0.366489
v -1.365620 0.032689 -0.366489
v -0.966103 -0.366828 -0.499661
v -1.099275 -0.233655 -0.499661
v -0.966103 -0.233655 -0.499661
v -1.232447 -0.100483 -0.499661
v -1.099275 -0.100483 -0.499661
v -0.966103 -0.100483 -0.499661
v -1.365620 0.032689 -0.499661
v -1.232447 0.032689 -0.499661
v -1.099275 0.032689 -0.499661
v -0.966103 0.032689 -0.499661
v 0.365620 0.964895 -0.366488
v 0.232447 0.964895 -0.366488
v 0.099275 0.964895 -0.366488
v -0.033897 0.964895 -0.366488
v 0.232447 1.098067 -0.366488
v 0.099275 1.098067 -0.366488
v -0.033897 1.098067 -0.366488
v 0.232447 1.231239 -0.366488
v 0.099275 1.231239 -0.366488
v -0.033897 1.231239 -0.366488
v -0.033897 1.364412 -0.366488
v -0.033897 0.964895 -0.499661
v 0.099275 0.964895 -0.499661
v 0.232447 0.964895 -0.499661
v 0.365620 0.964895 -0.499661
v -0.033897 1.098067 -0.499661
v 0.099275 1.098067 -0.499661
v 0.232447 1.098067 -0.499661
v -0.033897 1.231239 -0.499661
v 0.099275 1.231239 -0.499661
v 0.232447 1.231239 -0.499661
v -0.033897 1.364412 -0.499661
v -0.033897 -0.366828 -0.499661
v -0.033897 -0.233655 -0.499661
v 0.099275 -0.233655 -0.499661
v 0.232447 -0.233655 -0.499661
v -0.033897 -0.100483 -0.499661
v 0.099275 -0.100483 -0.499661
v 0.232447 -0.100483 -0.499661
v -0.033897 0.032689 -0.499661
v 0.099275 0.032689 -0.499661
v 0.232447 0.032689 -0.499661
v 0.365620 0.032689 -0.499661
v -0.033897 -0.366828 -0.366488
v 0.232447 -0.233655 -0.366488
v 0.099275 -0.233655 -0.366488
v -0.033897 -0.233655 -0.366488
v 0.232447 -0.100483 -0.366488
v 0.099275 -0.100483 -0.366488
v -0.033897 -0.100483 -0.366488
v 0.365620 0.032689 -0.366488
v 0.232447 0.032689 -0.366488
v 0.099275 0.032689 -0.366488
v -0.033897 0.032689 -0.366488
v -1.232448 -0.233655 -0.499661
v -1.232448 -0.233655 -0.366489
v -0.566798 0.565590 -0.499661
v -0.566798 0.431994 -0.499661
v -0.433202 0.565590 -0.499661
v -0.433202 0.431994 -0.499661
v -0.433202 0.565590 -0.566247
v -0.433202 0.431994 -0.566247
v -0.566798 0.565590 -0.566247
v -0.566798 0.431994 -0.566247
v -0.566798 0.565590 -0.366247
v -0.566798 0.431994 -0.366247
v -0.433202 0.565590 -0.366247
v -0.433202 0.431994 -0.366247
v -0.433202 0.565590 -0.299661
v -0.433202 0.431994 -0.299661
v -0.566798 0.565590 -0.299661
v -0.566798 0.431994 -0.299661
vn -0.0000 -0.0000 -1.0000
vn 1.0000 -0.0000 -0.0000
vn -0.0000 -0.0000 1.0000
vn -1.0000 -0.0000 -0.0000
vn -0.0000 -1.0000 -0.0000
vn -0.0000 1.0000 -0.0000
vt 0.066667 0.933333
vt 0.066667 1.000000
vt 0.000000 1.000000
vt 0.000000 0.933333
vt 0.933333 0.933333
vt 0.933333 1.000000
vt 1.000000 1.000000
vt 1.000000 0.933333
vt 0.933333 0.000000
vt 1.000000 0.000000
vt 0.266667 0.000000
vt 0.733333 0.000000
vt 1.000000 0.733333
vt 1.000000 0.800000
vt 1.000000 0.866667
vt 0.133333 0.266667
vt 0.133333 0.733333
vt 0.066667 0.733333
vt 0.066667 0.266667
vt 0.933333 0.733333
vt 0.933333 0.800000
vt 0.933333 0.866667
vt 0.000000 0.733333
vt 0.000000 0.800000
vt 0.000000 0.866667
vt 0.066667 0.800000
vt 0.066667 0.866667
vt 0.066667 0.000000
vt 0.066667 0.066667
vt 0.000000 0.066667
vt 0.000000 0.000000
vt 0.066667 0.133333
vt 0.000000 0.133333
vt 0.066667 0.200000
vt 0.000000 0.200000
vt 0.000000 0.266667
vt 0.933333 0.066667
vt 1.000000 0.066667
vt 0.933333 0.133333
vt 1.000000 0.133333
vt 0.933333 0.200000
vt 1.000000 0.200000
vt 0.933333 0.266667
vt 1.000000 0.266667
vt 0.866667 0.266667
vt 0.866667 0.200000
vt 0.866667 0.133333
vt 0.866667 0.066667
vt 0.800000 0.133333
vt 0.800000 0.066667
vt 0.733333 0.133333
vt 0.733333 0.066667
vt 0.866667 0.000000
vt 0.800000 0.000000
vt 0.733333 0.866667
vt 0.733333 0.933333
vt 0.800000 0.933333
vt 0.800000 0.866667
vt 0.866667 0.933333
vt 0.866667 0.866667
vt 0.866667 0.800000
vt 0.866667 0.733333
vt 0.866667 1.000000
vt 0.800000 1.000000
vt 0.733333 1.000000
vt 0.133333 0.200000
vt 0.133333 0.133333
vt 0.133333 0.066667
vt 0.200000 0.133333
vt 0.200000 0.066667
vt 0.266667 0.133333
vt 0.266667 0.066667
vt 0.133333 0.000000
vt 0.200000 0.000000
vt 0.729914 0.926983
vt 0.270086 0.926983
vt 0.266667 0.866667
vt 0.266667 0.933333
vt 0.200000 0.933333
vt 0.200000 0.866667
vt 0.133333 0.933333
vt 0.133333 0.866667
vt 0.133333 0.800000
vt 0.133333 1.000000
vt 0.200000 1.000000
vt 0.266667 1.000000
vt 0.800000 0.266667
vt 0.800000 0.200000
vt 0.733333 0.266667
vt 0.733333 0.200000
vt 0.733333 0.800000
vt 0.800000 0.800000
vt 0.733333 0.733333
vt 0.800000 0.733333
vt 0.200000 0.266667
vt 0.200000 0.200000
vt 0.266667 0.266667
vt 0.266667 0.200000
vt 0.266667 0.800000
vt 0.200000 0.800000
vt 0.266667 0.733333
vt 0.200000 0.733333
vt 0.861294 0.795604
vt 0.861294 0.861294
vt 0.861294 0.729914
vt 0.926983 0.729914
vt 0.861294 0.270086
vt 0.926983 0.270086
vt 0.861294 0.204396
vt 0.861294 0.138706
vt 0.795604 0.138706
vt 0.729914 0.138706
vt 0.729914 0.073017
vt 0.050677 0.754536
vt 0.050677 0.245463
vt 0.270086 0.073017
vt 0.270086 0.138706
vt 0.204396 0.138706
vt 0.138707 0.138706
vt 0.138707 0.204396
vt 0.138707 0.270086
vt 0.073017 0.270086
vt 0.073017 0.729914
vt 0.138707 0.729914
vt 0.138707 0.795604
vt 0.138707 0.861294
vt 0.204396 0.861294
vt 0.270086 0.861294
vt 0.729914 0.861294
vt 0.795604 0.861294
vt 0.240006 0.880196
vt 0.240006 0.949323
vt 0.188930 0.880196
vt 0.119804 0.880196
vt 0.119804 0.811070
vt 0.119804 0.754536
vt 0.119804 0.245463
vt 0.119804 0.188930
vt 0.119804 0.119804
vt 0.188930 0.119804
vt 0.240006 0.119804
vt 0.240006 0.050677
vt 0.759994 0.050677
vt 0.759994 0.119804
vt 0.811070 0.119804
vt 0.880196 0.119804
vt 0.880196 0.188930
vt 0.880196 0.245463
vt 0.949323 0.245463
vt 0.949323 0.754536
vt 0.759994 0.949323
vt 0.880196 0.754536
vt 0.880196 0.811070
vt 0.880196 0.880196
vt 0.811070 0.880196
vt 0.759994 0.880196
vt 0.466965 0.466965
vt 0.466965 0.533035
vt 0.533035 0.533035
vt 0.533035 0.466965
s 0
usemtl Material.001
f 144/1/1 108/2/1 4/3/1 13/4/1
f 13/4/2 4/3/2 8/3/2 17/4/2
f 80/5/3 48/6/3 6/7/3 21/8/3
f 21/8/4 6/7/4 2/7/4 12/8/4
f 44/9/5 53/9/5 5/10/5 1/10/5
f 48/6/6 49/6/6 2/7/6 6/7/6
f 109/11/5 56/12/5 41/12/5 116/11/5
f 24/13/4 23/14/4 10/14/4 9/13/4
f 23/14/4 22/15/4 11/15/4 10/14/4
f 22/15/4 21/8/4 12/8/4 11/15/4
f 242/16/1 224/17/1 225/18/1 243/19/1
f 70/20/3 72/21/3 23/14/3 24/13/3
f 72/21/3 76/22/3 22/15/3 23/14/3
f 76/22/3 80/5/3 21/8/3 22/15/3
f 16/23/2 15/24/2 19/24/2 20/23/2
f 15/24/2 14/25/2 18/25/2 19/24/2
f 14/25/2 13/4/2 17/4/2 18/25/2
f 134/18/1 136/26/1 15/24/1 16/23/1
f 136/26/1 140/27/1 14/25/1 15/24/1
f 140/27/1 144/1/1 13/4/1 14/25/1
f 113/28/1 148/29/1 28/30/1 3/31/1
f 148/29/1 152/32/1 27/33/1 28/30/1
f 152/32/1 154/34/1 26/35/1 27/33/1
f 154/34/1 156/19/1 25/36/1 26/35/1
f 3/31/2 28/30/2 32/30/2 7/31/2
f 28/30/2 27/33/2 31/33/2 32/30/2
f 27/33/2 26/35/2 30/35/2 31/33/2
f 26/35/2 25/36/2 29/36/2 30/35/2
f 53/9/3 84/37/3 36/38/3 5/10/3
f 84/37/3 87/39/3 35/40/3 36/38/3
f 87/39/3 90/41/3 34/42/3 35/40/3
f 90/41/3 92/43/3 33/44/3 34/42/3
f 5/10/4 36/38/4 37/38/4 1/10/4
f 36/38/4 35/40/4 38/40/4 37/38/4
f 35/40/4 34/42/4 39/42/4 38/40/4
f 34/42/4 33/44/4 40/44/4 39/42/4
f 24/13/4 9/13/4 40/44/4 33/44/4
f 39/42/1 40/44/1 103/43/1 100/41/1
f 100/41/1 103/43/1 104/45/1 101/46/1
f 38/40/1 39/42/1 100/41/1 97/39/1
f 97/39/1 100/41/1 101/46/1 102/47/1
f 37/38/1 38/40/1 97/39/1 93/37/1
f 93/37/1 97/39/1 102/47/1 94/48/1
f 94/48/1 102/47/1 98/49/1 95/50/1
f 95/50/1 98/49/1 99/51/1 96/52/1
f 1/10/1 37/38/1 93/37/1 44/9/1
f 44/9/1 93/37/1 94/48/1 43/53/1
f 43/53/1 94/48/1 95/50/1 42/54/1
f 42/54/1 95/50/1 96/52/1 41/12/1
f 89/46/3 91/45/3 92/43/3 90/41/3
f 88/47/3 89/46/3 90/41/3 87/39/3
f 81/52/3 85/51/3 86/49/3 82/50/3
f 82/50/3 86/49/3 88/47/3 83/48/3
f 83/48/3 88/47/3 87/39/3 84/37/3
f 56/12/3 81/52/3 82/50/3 55/54/3
f 55/54/3 82/50/3 83/48/3 54/53/3
f 54/53/3 83/48/3 84/37/3 53/9/3
f 73/55/3 77/56/3 78/57/3 74/58/3
f 74/58/3 78/57/3 79/59/3 75/60/3
f 75/60/3 79/59/3 80/5/3 76/22/3
f 71/61/3 75/60/3 76/22/3 72/21/3
f 69/62/3 71/61/3 72/21/3 70/20/3
f 11/15/1 12/8/1 65/5/1 61/22/1
f 61/22/1 65/5/1 66/59/1 62/60/1
f 62/60/1 66/59/1 67/57/1 63/58/1
f 63/58/1 67/57/1 68/56/1 64/55/1
f 10/14/1 11/15/1 61/22/1 59/21/1
f 59/21/1 61/22/1 62/60/1 60/61/1
f 9/13/1 10/14/1 59/21/1 57/20/1
f 57/20/1 59/21/1 60/61/1 58/62/1
f 12/8/1 2/7/1 49/6/1 65/5/1
f 65/5/1 49/6/1 50/63/1 66/59/1
f 66/59/1 50/63/1 51/64/1 67/57/1
f 67/57/1 51/64/1 52/65/1 68/56/1
f 45/65/6 52/65/6 51/64/6 46/64/6
f 46/64/6 51/64/6 50/63/6 47/63/6
f 47/63/6 50/63/6 49/6/6 48/6/6
f 41/12/5 56/12/5 55/54/5 42/54/5
f 42/54/5 55/54/5 54/53/5 43/53/5
f 43/53/5 54/53/5 53/9/5 44/9/5
f 77/56/3 45/65/3 46/64/3 78/57/3
f 78/57/3 46/64/3 47/63/3 79/59/3
f 79/59/3 47/63/3 48/6/3 80/5/3
f 30/35/3 29/36/3 167/19/3 165/34/3
f 165/34/3 167/19/3 168/16/3 166/66/3
f 31/33/3 30/35/3 165/34/3 161/32/3
f 161/32/3 165/34/3 166/66/3 162/67/3
f 32/30/3 31/33/3 161/32/3 157/29/3
f 157/29/3 161/32/3 162/67/3 158/68/3
f 158/68/3 162/67/3 163/69/3 159/70/3
f 159/70/3 163/69/3 164/71/3 160/72/3
f 7/31/3 32/30/3 157/29/3 112/28/3
f 112/28/3 157/29/3 158/68/3 111/73/3
f 111/73/3 158/68/3 159/70/3 110/74/3
f 110/74/3 159/70/3 160/72/3 109/11/3
f 153/66/1 155/16/1 156/19/1 154/34/1
f 151/67/1 153/66/1 154/34/1 152/32/1
f 145/72/1 149/71/1 150/69/1 146/70/1
f 146/70/1 150/69/1 151/67/1 147/68/1
f 147/68/1 151/67/1 152/32/1 148/29/1
f 179/75/6 190/75/6 221/76/6 232/76/6
f 116/11/1 145/72/1 146/70/1 115/74/1
f 115/74/1 146/70/1 147/68/1 114/73/1
f 114/73/1 147/68/1 148/29/1 113/28/1
f 137/77/1 141/78/1 142/79/1 138/80/1
f 138/80/1 142/79/1 143/81/1 139/82/1
f 139/82/1 143/81/1 144/1/1 140/27/1
f 135/83/1 139/82/1 140/27/1 136/26/1
f 133/17/1 135/83/1 136/26/1 134/18/1
f 18/25/3 17/4/3 129/1/3 125/27/3
f 125/27/3 129/1/3 130/81/3 126/82/3
f 126/82/3 130/81/3 131/79/3 127/80/3
f 127/80/3 131/79/3 132/78/3 128/77/3
f 19/24/3 18/25/3 125/27/3 123/26/3
f 123/26/3 125/27/3 126/82/3 124/83/3
f 20/23/3 19/24/3 123/26/3 121/18/3
f 121/18/3 123/26/3 124/83/3 122/17/3
f 20/23/3 121/18/3 167/19/3 29/36/3
f 17/4/3 8/3/3 117/2/3 129/1/3
f 129/1/3 117/2/3 118/84/3 130/81/3
f 130/81/3 118/84/3 119/85/3 131/79/3
f 131/79/3 119/85/3 120/86/3 132/78/3
f 3/31/5 7/31/5 112/28/5 113/28/5
f 113/28/5 112/28/5 111/73/5 114/73/5
f 114/73/5 111/73/5 110/74/5 115/74/5
f 115/74/5 110/74/5 109/11/5 116/11/5
f 8/3/6 4/3/6 108/2/6 117/2/6
f 117/2/6 108/2/6 107/84/6 118/84/6
f 118/84/6 107/84/6 106/85/6 119/85/6
f 119/85/6 106/85/6 105/86/6 120/86/6
f 134/18/1 16/23/1 25/36/1 156/19/1
f 141/78/1 105/86/1 106/85/1 142/79/1
f 142/79/1 106/85/1 107/84/1 143/81/1
f 143/81/1 107/84/1 108/2/1 144/1/1
f 160/72/3 81/52/3 56/12/3 109/11/3
f 96/52/1 145/72/1 116/11/1 41/12/1
f 52/65/1 105/86/1 141/78/1 68/56/1
f 204/46/1 208/45/1 209/87/1 205/88/1
f 205/88/1 209/87/1 210/89/1 206/90/1
f 202/49/1 205/88/1 206/90/1 203/51/1
f 194/90/3 197/89/3 198/87/3 195/88/3
f 195/88/3 198/87/3 199/45/3 196/46/3
f 192/51/3 194/90/3 195/88/3 193/49/3
f 184/91/3 187/55/3 188/58/3 185/92/3
f 185/92/3 188/58/3 189/60/3 186/61/3
f 180/93/3 184/91/3 185/92/3 181/94/3
f 181/94/3 185/92/3 186/61/3 182/62/3
f 173/61/1 176/60/1 177/58/1 174/92/1
f 174/92/1 177/58/1 178/55/1 175/91/1
f 170/62/1 173/61/1 174/92/1 171/94/1
f 171/94/1 174/92/1 175/91/1 172/93/1
f 40/44/1 9/13/1 57/20/1 103/43/1
f 212/17/3 252/16/3 251/19/3 211/18/3
f 120/86/3 45/65/3 77/56/3 132/78/3
f 248/66/3 252/16/3 253/95/3 249/96/3
f 249/96/3 253/95/3 254/97/3 250/98/3
f 245/67/3 248/66/3 249/96/3 246/69/3
f 246/69/3 249/96/3 250/98/3 247/71/3
f 237/98/1 240/97/1 241/95/1 238/96/1
f 238/96/1 241/95/1 242/16/1 239/66/1
f 234/71/1 237/98/1 238/96/1 235/69/1
f 235/69/1 238/96/1 239/66/1 236/67/1
f 52/65/6 45/65/6 120/86/6 105/86/6
f 226/99/1 229/77/1 230/80/1 227/100/1
f 227/100/1 230/80/1 231/82/1 228/83/1
f 222/101/1 226/99/1 227/100/1 223/102/1
f 223/102/1 227/100/1 228/83/1 224/17/1
f 215/83/3 218/82/3 219/80/3 216/100/3
f 216/100/3 219/80/3 220/77/3 217/99/3
f 212/17/3 215/83/3 216/100/3 213/102/3
f 213/102/3 216/100/3 217/99/3 214/101/3
f 70/20/3 24/13/3 33/44/3 92/43/3
f 186/103/4 189/104/4 176/104/4 173/103/4
f 182/105/4 186/103/4 173/103/4 170/105/4
f 169/106/6 183/106/6 182/105/6 170/105/6
f 199/107/5 200/108/5 207/108/5 208/107/5
f 204/109/4 196/109/4 199/107/4 208/107/4
f 196/109/4 204/109/4 255/110/4 256/110/4
f 256/110/5 255/110/5 202/111/5 193/111/5
f 192/112/5 193/111/5 202/111/5 203/112/5
f 201/113/4 191/113/4 192/112/4 203/112/4
f 183/106/4 169/106/4 207/108/4 200/108/4
f 121/114/4 134/114/4 156/115/4 167/115/4
f 244/116/2 233/116/2 234/117/2 247/117/2
f 234/117/5 235/118/5 246/118/5 247/117/5
f 235/118/5 236/119/5 245/119/5 246/118/5
f 245/119/2 236/119/2 239/120/2 248/120/2
f 248/120/2 239/120/2 242/121/2 252/121/2
f 242/121/5 243/122/5 251/122/5 252/121/5
f 225/123/2 211/123/2 251/122/2 243/122/2
f 233/116/5 244/116/5 191/113/5 201/113/5
f 211/123/6 225/123/6 224/124/6 212/124/6
f 224/124/2 228/125/2 215/125/2 212/124/2
f 228/125/2 231/126/2 218/126/2 215/125/2
f 218/126/6 231/126/6 230/127/6 219/127/6
f 219/127/6 230/127/6 229/128/6 220/128/6
f 229/128/2 232/76/2 221/76/2 220/128/2
f 187/129/4 190/75/4 179/75/4 178/129/4
f 177/130/6 188/130/6 187/129/6 178/129/6
f 176/104/6 189/104/6 188/130/6 177/130/6
f 137/131/4 128/131/4 132/132/4 141/132/4
f 127/133/5 128/131/5 137/131/5 138/133/5
f 126/134/5 127/133/5 138/133/5 139/134/5
f 135/135/4 124/135/4 126/134/4 139/134/4
f 133/136/4 122/136/4 124/135/4 135/135/4
f 121/114/5 122/136/5 133/136/5 134/114/5
f 155/137/6 168/137/6 167/115/6 156/115/6
f 166/138/4 168/137/4 155/137/4 153/138/4
f 162/139/4 166/138/4 153/138/4 151/139/4
f 150/140/6 163/140/6 162/139/6 151/139/6
f 149/141/6 164/141/6 163/140/6 150/140/6
f 160/142/4 164/141/4 149/141/4 145/142/4
f 247/71/3 192/51/3 191/52/3 244/72/3
f 16/23/2 20/23/2 29/36/2 25/36/2
f 96/143/2 99/144/2 85/144/2 81/143/2
f 85/144/6 99/144/6 98/145/6 86/145/6
f 98/145/6 102/146/6 88/146/6 86/145/6
f 88/146/2 102/146/2 101/147/2 89/147/2
f 101/147/2 104/148/2 91/148/2 89/147/2
f 91/148/6 104/148/6 103/149/6 92/149/6
f 57/150/2 70/150/2 92/149/2 103/149/2
f 132/132/5 77/151/5 68/151/5 141/132/5
f 160/142/6 145/142/6 96/143/6 81/143/6
f 57/150/5 58/152/5 69/152/5 70/150/5
f 69/152/2 58/152/2 60/153/2 71/153/2
f 71/153/2 60/153/2 62/154/2 75/154/2
f 62/154/5 63/155/5 74/155/5 75/154/5
f 63/155/5 64/156/5 73/156/5 74/155/5
f 73/156/2 64/156/2 68/151/2 77/151/2
f 199/45/3 182/62/3 183/20/3 200/43/3
f 171/94/1 172/93/1 210/89/1 209/87/1
f 203/51/1 234/71/1 233/72/1 201/52/1
f 241/95/1 223/102/1 224/17/1 242/16/1
f 170/62/1 171/94/1 209/87/1 208/45/1
f 169/20/1 170/62/1 208/45/1 207/43/1
f 229/77/1 178/55/1 179/56/1 232/78/1
f 206/90/1 237/98/1 234/71/1 203/51/1
f 194/90/3 250/98/3 254/97/3 197/89/3
f 226/99/1 175/91/1 178/55/1 229/77/1
f 221/78/3 190/56/3 187/55/3 220/77/3
f 220/77/3 187/55/3 184/91/3 217/99/3
f 214/101/3 180/93/3 197/89/3 254/97/3
f 250/98/3 194/90/3 192/51/3 247/71/3
f 197/89/3 180/93/3 181/94/3 198/87/3
f 198/87/3 181/94/3 182/62/3 199/45/3
f 214/101/3 254/97/3 253/95/3 213/102/3
f 213/102/3 253/95/3 252/16/3 212/17/3
f 214/101/3 217/99/3 184/91/3 180/93/3
f 206/90/1 210/89/1 240/97/1 237/98/1
f 240/97/1 210/89/1 172/93/1 222/101/1
f 172/93/1 175/91/1 226/99/1 222/101/1
f 240/97/1 222/101/1 223/102/1 241/95/1
f 205/88/1 202/49/1 255/47/1 204/46/1
f 195/88/3 196/46/3 256/47/3 193/49/3
f 260/157/3 259/158/3 257/159/3 258/160/3
f 262/157/1 264/160/1 263/159/1 261/158/1
f 257/159/6 259/158/6 261/158/6 263/159/6
f 258/160/4 257/159/4 263/159/4 264/160/4
f 260/157/5 258/160/5 264/160/5 262/157/5
f 259/158/2 260/157/2 262/157/2 261/158/2
f 268/157/1 266/160/1 265/159/1 267/158/1
f 270/157/3 269/158/3 271/159/3 272/160/3
f 265/159/6 271/159/6 269/158/6 267/158/6
f 266/160/4 272/160/4 271/159/4 265/159/4
f 268/157/5 270/157/5 272/160/5 266/160/5
f 267/158/2 269/158/2 270/157/2 268/157/2
